<mxfile host="app.diagrams.net" modified="2023-09-15T10:32:15.737Z" agent="Mozilla/5.0 (Windows NT 10.0; Win64; x64) AppleWebKit/537.36 (KHTML, like Gecko) Chrome/116.0.0.0 Safari/537.36 Edg/116.0.1938.81" etag="B6R9yvwqt5UJs_1Tq98f" version="21.7.5" type="device">
  <diagram id="R2lEEEUBdFMjLlhIrx00" name="Page-1">
    <mxGraphModel dx="2085" dy="1085" grid="1" gridSize="10" guides="1" tooltips="1" connect="1" arrows="1" fold="1" page="0" pageScale="1" pageWidth="850" pageHeight="1100" math="0" shadow="0" extFonts="Permanent Marker^https://fonts.googleapis.com/css?family=Permanent+Marker">
      <root>
        <mxCell id="0" />
        <mxCell id="1" parent="0" />
        <mxCell id="Aqao1uQsk0-bMXRQZP0p-10" value="&lt;span style=&quot;background-color: initial;&quot;&gt;&lt;b&gt;&lt;font color=&quot;#009900&quot;&gt;find the activity reporting record for that hcp&lt;/font&gt; in that quarter&amp;nbsp;&lt;/b&gt;&lt;/span&gt;" style="text;html=1;strokeColor=none;fillColor=none;align=left;verticalAlign=middle;whiteSpace=wrap;rounded=1;labelBackgroundColor=none;fontColor=#1A1A1A;" vertex="1" parent="1">
          <mxGeometry x="-561" y="243" width="353" height="30" as="geometry" />
        </mxCell>
        <mxCell id="Aqao1uQsk0-bMXRQZP0p-4" value="We need the &lt;font color=&quot;#ff0000&quot;&gt;reached code&lt;/font&gt; from catalyst to mahana..." style="text;html=1;align=center;verticalAlign=middle;resizable=0;points=[];autosize=1;strokeColor=none;fillColor=none;fontSize=13;rounded=1;labelBackgroundColor=none;fontColor=#1A1A1A;" vertex="1" parent="1">
          <mxGeometry x="-598" y="-11" width="327" height="28" as="geometry" />
        </mxCell>
        <mxCell id="Aqao1uQsk0-bMXRQZP0p-35" style="edgeStyle=orthogonalEdgeStyle;rounded=1;orthogonalLoop=1;jettySize=auto;html=1;exitX=1;exitY=0.5;exitDx=0;exitDy=0;labelBackgroundColor=none;strokeColor=#182E3E;fontColor=default;" edge="1" parent="1" source="Aqao1uQsk0-bMXRQZP0p-5">
          <mxGeometry relative="1" as="geometry">
            <mxPoint x="-10" y="30.034482758620697" as="targetPoint" />
          </mxGeometry>
        </mxCell>
        <mxCell id="Aqao1uQsk0-bMXRQZP0p-5" value="I have the same &lt;b style=&quot;&quot;&gt;&lt;font color=&quot;#009900&quot;&gt;activity reporting object&lt;/font&gt;&lt;/b&gt;. there is a record for every &lt;b&gt;&lt;font color=&quot;#61420d&quot;&gt;hcp&lt;/font&gt; &lt;/b&gt;in the system." style="text;html=1;strokeColor=none;fillColor=none;align=left;verticalAlign=middle;whiteSpace=wrap;rounded=1;fontSize=13;labelBackgroundColor=none;fontColor=#1A1A1A;" vertex="1" parent="1">
          <mxGeometry x="-580" y="10" width="520" height="40" as="geometry" />
        </mxCell>
        <mxCell id="Aqao1uQsk0-bMXRQZP0p-7" value="&lt;b&gt;&lt;font style=&quot;font-size: 16px;&quot;&gt;IF&lt;/font&gt;&lt;/b&gt;" style="text;html=1;align=center;verticalAlign=middle;resizable=0;points=[];autosize=1;strokeColor=none;fillColor=none;rounded=1;labelBackgroundColor=none;fontColor=#1A1A1A;" vertex="1" parent="1">
          <mxGeometry x="-600" y="90" width="40" height="30" as="geometry" />
        </mxCell>
        <mxCell id="Aqao1uQsk0-bMXRQZP0p-8" value="&lt;b&gt;&lt;font style=&quot;font-size: 16px;&quot;&gt;IF&lt;/font&gt;&lt;/b&gt;" style="text;html=1;align=center;verticalAlign=middle;resizable=0;points=[];autosize=1;strokeColor=none;fillColor=none;rounded=1;labelBackgroundColor=none;fontColor=#1A1A1A;" vertex="1" parent="1">
          <mxGeometry x="-600" y="210" width="40" height="30" as="geometry" />
        </mxCell>
        <mxCell id="Aqao1uQsk0-bMXRQZP0p-34" style="edgeStyle=orthogonalEdgeStyle;rounded=1;orthogonalLoop=1;jettySize=auto;html=1;exitX=1;exitY=0.25;exitDx=0;exitDy=0;labelBackgroundColor=none;strokeColor=#182E3E;fontColor=default;" edge="1" parent="1" source="Aqao1uQsk0-bMXRQZP0p-9">
          <mxGeometry relative="1" as="geometry">
            <mxPoint x="-170" y="132.71428571428567" as="targetPoint" />
          </mxGeometry>
        </mxCell>
        <mxCell id="Aqao1uQsk0-bMXRQZP0p-38" style="edgeStyle=orthogonalEdgeStyle;rounded=1;orthogonalLoop=1;jettySize=auto;html=1;exitX=0.543;exitY=0.752;exitDx=0;exitDy=0;exitPerimeter=0;labelBackgroundColor=none;strokeColor=#182E3E;fontColor=default;" edge="1" parent="1" source="Aqao1uQsk0-bMXRQZP0p-9">
          <mxGeometry relative="1" as="geometry">
            <mxPoint x="-170" y="157.62068965517244" as="targetPoint" />
          </mxGeometry>
        </mxCell>
        <mxCell id="Aqao1uQsk0-bMXRQZP0p-9" value="&lt;b&gt;&lt;span style=&quot;background-color: initial;&quot;&gt;&lt;font color=&quot;#009900&quot;&gt;find the activity reporting record for that hcp&lt;/font&gt; in that quarter &lt;br&gt;and &lt;br&gt;&lt;/span&gt;&lt;font style=&quot;background-color: initial;&quot; color=&quot;#0066cc&quot;&gt;change the type field to reached&lt;/font&gt;&lt;span style=&quot;background-color: initial;&quot;&gt;.&lt;/span&gt;&lt;/b&gt;" style="text;html=1;strokeColor=none;fillColor=none;align=left;verticalAlign=middle;whiteSpace=wrap;rounded=1;labelBackgroundColor=none;fontColor=#1A1A1A;" vertex="1" parent="1">
          <mxGeometry x="-560" y="120" width="350" height="50" as="geometry" />
        </mxCell>
        <mxCell id="Aqao1uQsk0-bMXRQZP0p-12" value="&lt;b&gt;&lt;font style=&quot;font-size: 19px;&quot;&gt;{&lt;/font&gt;&lt;/b&gt;" style="text;html=1;align=center;verticalAlign=middle;resizable=0;points=[];autosize=1;strokeColor=none;fillColor=none;rounded=1;labelBackgroundColor=none;fontColor=#1A1A1A;" vertex="1" parent="1">
          <mxGeometry x="-340" y="84" width="30" height="40" as="geometry" />
        </mxCell>
        <mxCell id="Aqao1uQsk0-bMXRQZP0p-13" value="&lt;b&gt;&lt;font style=&quot;font-size: 19px;&quot;&gt;}&lt;/font&gt;&lt;/b&gt;" style="text;html=1;align=center;verticalAlign=middle;resizable=0;points=[];autosize=1;strokeColor=none;fillColor=none;rounded=1;labelBackgroundColor=none;fontColor=#1A1A1A;" vertex="1" parent="1">
          <mxGeometry x="-600" y="160" width="30" height="40" as="geometry" />
        </mxCell>
        <mxCell id="Aqao1uQsk0-bMXRQZP0p-14" value="&lt;font color=&quot;#0066cc&quot;&gt;&lt;b&gt;change the type field to attempted. &lt;/b&gt;&lt;/font&gt;&lt;br&gt;&lt;br&gt;&lt;i style=&quot;&quot;&gt;&lt;font color=&quot;#00ff80&quot;&gt;// We do not want to overwrite if the field already says Reached.&lt;/font&gt;&lt;/i&gt;" style="text;html=1;strokeColor=none;fillColor=none;align=left;verticalAlign=middle;whiteSpace=wrap;rounded=1;labelBackgroundColor=none;fontColor=#1A1A1A;" vertex="1" parent="1">
          <mxGeometry x="-534" y="290" width="385" height="90" as="geometry" />
        </mxCell>
        <mxCell id="Aqao1uQsk0-bMXRQZP0p-16" value="&lt;span style=&quot;font-size: 19px;&quot;&gt;&lt;b&gt;(&lt;/b&gt;&lt;/span&gt;" style="text;html=1;align=center;verticalAlign=middle;resizable=0;points=[];autosize=1;strokeColor=none;fillColor=none;rounded=1;labelBackgroundColor=none;fontColor=#1A1A1A;" vertex="1" parent="1">
          <mxGeometry x="-580" y="84" width="30" height="40" as="geometry" />
        </mxCell>
        <mxCell id="Aqao1uQsk0-bMXRQZP0p-17" value="&lt;b&gt;&lt;font style=&quot;font-size: 19px;&quot;&gt;)&lt;/font&gt;&lt;/b&gt;" style="text;html=1;align=center;verticalAlign=middle;resizable=0;points=[];autosize=1;strokeColor=none;fillColor=none;rounded=1;labelBackgroundColor=none;fontColor=#1A1A1A;" vertex="1" parent="1">
          <mxGeometry x="-350" y="84" width="30" height="40" as="geometry" />
        </mxCell>
        <mxCell id="Aqao1uQsk0-bMXRQZP0p-31" style="edgeStyle=orthogonalEdgeStyle;rounded=1;orthogonalLoop=1;jettySize=auto;html=1;exitX=0.186;exitY=-0.105;exitDx=0;exitDy=0;exitPerimeter=0;labelBackgroundColor=none;strokeColor=#182E3E;fontColor=default;" edge="1" parent="1" source="Aqao1uQsk0-bMXRQZP0p-18">
          <mxGeometry relative="1" as="geometry">
            <mxPoint x="-170" y="103" as="targetPoint" />
            <mxPoint x="-520" y="103" as="sourcePoint" />
            <Array as="points">
              <mxPoint x="-519" y="83" />
              <mxPoint x="-211" y="83" />
              <mxPoint x="-211" y="103" />
            </Array>
          </mxGeometry>
        </mxCell>
        <mxCell id="Aqao1uQsk0-bMXRQZP0p-18" value="an&amp;nbsp;&lt;b style=&quot;border-color: var(--border-color);&quot;&gt;&lt;font style=&quot;border-color: var(--border-color);&quot; color=&quot;#ff8000&quot;&gt;activity&lt;/font&gt;&lt;/b&gt;&amp;nbsp;has the field&amp;nbsp;&lt;font style=&quot;border-color: var(--border-color); text-align: left;&quot; color=&quot;#007fff&quot;&gt;&lt;b style=&quot;border-color: var(--border-color);&quot;&gt;Reached = 1&lt;/b&gt;&lt;/font&gt;&lt;span style=&quot;text-align: left;&quot;&gt;&amp;nbsp;...&lt;/span&gt;" style="text;html=1;strokeColor=none;fillColor=none;align=center;verticalAlign=middle;whiteSpace=wrap;rounded=1;labelBackgroundColor=none;fontColor=#1A1A1A;" vertex="1" parent="1">
          <mxGeometry x="-560" y="94.5" width="220" height="19" as="geometry" />
        </mxCell>
        <mxCell id="Aqao1uQsk0-bMXRQZP0p-19" value="the &lt;b&gt;&lt;font color=&quot;#ff8000&quot;&gt;activity&lt;/font&gt;&lt;/b&gt; has the field&amp;nbsp;&lt;b style=&quot;border-color: var(--border-color); text-align: left;&quot;&gt;&lt;font style=&quot;border-color: var(--border-color);&quot; color=&quot;#007fff&quot;&gt;Attempted = 1&lt;/font&gt;&lt;/b&gt;&lt;span style=&quot;text-align: left;&quot;&gt;&amp;nbsp;...&lt;/span&gt;" style="text;html=1;strokeColor=none;fillColor=none;align=center;verticalAlign=middle;whiteSpace=wrap;rounded=1;labelBackgroundColor=none;fontColor=#1A1A1A;" vertex="1" parent="1">
          <mxGeometry x="-563" y="210" width="230" height="30" as="geometry" />
        </mxCell>
        <mxCell id="Aqao1uQsk0-bMXRQZP0p-20" value="&lt;span style=&quot;font-size: 19px;&quot;&gt;&lt;b&gt;(&lt;/b&gt;&lt;/span&gt;" style="text;html=1;align=center;verticalAlign=middle;resizable=0;points=[];autosize=1;strokeColor=none;fillColor=none;rounded=1;labelBackgroundColor=none;fontColor=#1A1A1A;" vertex="1" parent="1">
          <mxGeometry x="-580" y="205" width="30" height="40" as="geometry" />
        </mxCell>
        <mxCell id="Aqao1uQsk0-bMXRQZP0p-21" value="&lt;b&gt;&lt;font style=&quot;font-size: 19px;&quot;&gt;)&lt;/font&gt;&lt;/b&gt;" style="text;html=1;align=center;verticalAlign=middle;resizable=0;points=[];autosize=1;strokeColor=none;fillColor=none;rounded=1;labelBackgroundColor=none;fontColor=#1A1A1A;" vertex="1" parent="1">
          <mxGeometry x="-346" y="203" width="30" height="40" as="geometry" />
        </mxCell>
        <mxCell id="Aqao1uQsk0-bMXRQZP0p-22" value="&lt;b&gt;&lt;font style=&quot;font-size: 19px;&quot;&gt;{&lt;/font&gt;&lt;/b&gt;" style="text;html=1;align=center;verticalAlign=middle;resizable=0;points=[];autosize=1;strokeColor=none;fillColor=none;rounded=1;labelBackgroundColor=none;fontColor=#1A1A1A;" vertex="1" parent="1">
          <mxGeometry x="-335" y="203" width="30" height="40" as="geometry" />
        </mxCell>
        <mxCell id="Aqao1uQsk0-bMXRQZP0p-23" value="&lt;b&gt;&lt;font style=&quot;font-size: 19px;&quot;&gt;}&lt;/font&gt;&lt;/b&gt;" style="text;html=1;align=center;verticalAlign=middle;resizable=0;points=[];autosize=1;strokeColor=none;fillColor=none;rounded=1;labelBackgroundColor=none;fontColor=#1A1A1A;" vertex="1" parent="1">
          <mxGeometry x="-600" y="400" width="30" height="40" as="geometry" />
        </mxCell>
        <mxCell id="Aqao1uQsk0-bMXRQZP0p-24" value="&lt;b&gt;&lt;font style=&quot;font-size: 16px;&quot;&gt;IF&lt;/font&gt;&lt;/b&gt;" style="text;html=1;align=center;verticalAlign=middle;resizable=0;points=[];autosize=1;strokeColor=none;fillColor=none;rounded=1;labelBackgroundColor=none;fontColor=#1A1A1A;" vertex="1" parent="1">
          <mxGeometry x="-570" y="274" width="40" height="30" as="geometry" />
        </mxCell>
        <mxCell id="Aqao1uQsk0-bMXRQZP0p-25" value="&lt;b style=&quot;border-color: var(--border-color); text-align: left;&quot;&gt;&lt;font style=&quot;border-color: var(--border-color);&quot; color=&quot;#009900&quot;&gt;activity reporting record &lt;/font&gt;&lt;font style=&quot;border-color: var(--border-color);&quot;&gt;. &lt;font color=&quot;#0066cc&quot;&gt;type field&lt;/font&gt; . &lt;font color=&quot;#ff6666&quot;&gt;isblank()&lt;/font&gt;&lt;/font&gt;&lt;/b&gt;" style="text;html=1;strokeColor=none;fillColor=none;align=center;verticalAlign=middle;whiteSpace=wrap;rounded=1;labelBackgroundColor=none;fontColor=#1A1A1A;" vertex="1" parent="1">
          <mxGeometry x="-534" y="273" width="270" height="30" as="geometry" />
        </mxCell>
        <mxCell id="Aqao1uQsk0-bMXRQZP0p-26" value="&lt;span style=&quot;font-size: 19px;&quot;&gt;&lt;b&gt;(&lt;/b&gt;&lt;/span&gt;" style="text;html=1;align=center;verticalAlign=middle;resizable=0;points=[];autosize=1;strokeColor=none;fillColor=none;rounded=1;labelBackgroundColor=none;fontColor=#1A1A1A;" vertex="1" parent="1">
          <mxGeometry x="-550" y="268" width="30" height="40" as="geometry" />
        </mxCell>
        <mxCell id="Aqao1uQsk0-bMXRQZP0p-27" value="&lt;b&gt;&lt;font style=&quot;font-size: 19px;&quot;&gt;)&lt;/font&gt;&lt;/b&gt;" style="text;html=1;align=center;verticalAlign=middle;resizable=0;points=[];autosize=1;strokeColor=none;fillColor=none;rounded=1;labelBackgroundColor=none;fontColor=#1A1A1A;" vertex="1" parent="1">
          <mxGeometry x="-280" y="268" width="30" height="40" as="geometry" />
        </mxCell>
        <mxCell id="Aqao1uQsk0-bMXRQZP0p-28" value="&lt;b&gt;&lt;font style=&quot;font-size: 19px;&quot;&gt;{&lt;/font&gt;&lt;/b&gt;" style="text;html=1;align=center;verticalAlign=middle;resizable=0;points=[];autosize=1;strokeColor=none;fillColor=none;rounded=1;labelBackgroundColor=none;fontColor=#1A1A1A;" vertex="1" parent="1">
          <mxGeometry x="-270" y="268" width="30" height="40" as="geometry" />
        </mxCell>
        <mxCell id="Aqao1uQsk0-bMXRQZP0p-29" value="&lt;b&gt;&lt;font style=&quot;font-size: 19px;&quot;&gt;}&lt;/font&gt;&lt;/b&gt;" style="text;html=1;align=center;verticalAlign=middle;resizable=0;points=[];autosize=1;strokeColor=none;fillColor=none;rounded=1;labelBackgroundColor=none;fontColor=#1A1A1A;" vertex="1" parent="1">
          <mxGeometry x="-570" y="360" width="30" height="40" as="geometry" />
        </mxCell>
        <mxCell id="Aqao1uQsk0-bMXRQZP0p-32" value="&lt;b style=&quot;border-color: var(--border-color); font-size: 16px;&quot;&gt;&lt;font style=&quot;border-color: var(--border-color); font-size: 16px;&quot; color=&quot;#ff8000&quot;&gt;activity &lt;/font&gt;&lt;font style=&quot;border-color: var(--border-color); font-size: 16px;&quot;&gt;= Activity&lt;/font&gt;&lt;/b&gt;" style="text;html=1;strokeColor=none;fillColor=none;align=center;verticalAlign=middle;whiteSpace=wrap;rounded=1;fontSize=16;labelBackgroundColor=none;fontColor=#1A1A1A;" vertex="1" parent="1">
          <mxGeometry x="-190" y="89.5" width="184" height="24" as="geometry" />
        </mxCell>
        <mxCell id="Aqao1uQsk0-bMXRQZP0p-33" value="&lt;b style=&quot;border-color: var(--border-color); text-align: left; font-size: 16px;&quot;&gt;&lt;font style=&quot;border-color: var(--border-color); font-size: 16px;&quot; color=&quot;#009900&quot;&gt;activity reporting &lt;/font&gt;&lt;font style=&quot;border-color: var(--border-color); font-size: 16px;&quot;&gt;= ActivityReporting__c&lt;/font&gt;&lt;/b&gt;" style="text;html=1;strokeColor=none;fillColor=none;align=center;verticalAlign=middle;whiteSpace=wrap;rounded=1;fontSize=16;labelBackgroundColor=none;fontColor=#1A1A1A;" vertex="1" parent="1">
          <mxGeometry x="-163" y="117" width="310" height="25.5" as="geometry" />
        </mxCell>
        <mxCell id="Aqao1uQsk0-bMXRQZP0p-36" value="&lt;b style=&quot;border-color: var(--border-color); font-size: 16px;&quot;&gt;&lt;font color=&quot;#61420d&quot; style=&quot;border-color: var(--border-color); font-size: 16px;&quot;&gt;hcp&lt;/font&gt;&lt;font style=&quot;border-color: var(--border-color); font-size: 16px;&quot; color=&quot;#ff8000&quot;&gt;&amp;nbsp;&lt;/font&gt;&lt;font style=&quot;border-color: var(--border-color); font-size: 16px;&quot;&gt;= Person Account, Record Type: HCP&lt;/font&gt;&lt;/b&gt;" style="text;html=1;strokeColor=none;fillColor=none;align=center;verticalAlign=middle;whiteSpace=wrap;rounded=1;fontSize=16;labelBackgroundColor=none;fontColor=#1A1A1A;" vertex="1" parent="1">
          <mxGeometry x="-8" y="2.5" width="341" height="55" as="geometry" />
        </mxCell>
        <mxCell id="Aqao1uQsk0-bMXRQZP0p-37" value="Custom Object" style="text;html=1;align=center;verticalAlign=middle;resizable=0;points=[];autosize=1;strokeColor=none;fillColor=none;rounded=1;labelBackgroundColor=none;fontColor=#1A1A1A;" vertex="1" parent="1">
          <mxGeometry x="-25" y="101" width="100" height="30" as="geometry" />
        </mxCell>
        <mxCell id="Aqao1uQsk0-bMXRQZP0p-39" value="&lt;b style=&quot;border-color: var(--border-color); text-align: left;&quot;&gt;&lt;font style=&quot;border-color: var(--border-color); background-color: initial; font-size: 16px;&quot; color=&quot;#0066cc&quot;&gt;type field &lt;/font&gt;&lt;font style=&quot;border-color: var(--border-color); background-color: initial; font-size: 16px;&quot;&gt;= ActivityReporting__c.Type__c&lt;/font&gt;&lt;/b&gt;" style="text;html=1;strokeColor=none;fillColor=none;align=center;verticalAlign=middle;whiteSpace=wrap;rounded=1;labelBackgroundColor=none;fontColor=#1A1A1A;" vertex="1" parent="1">
          <mxGeometry x="-162" y="142.5" width="318" height="30" as="geometry" />
        </mxCell>
        <mxCell id="Aqao1uQsk0-bMXRQZP0p-40" value="Picklist" style="text;html=1;align=center;verticalAlign=middle;resizable=0;points=[];autosize=1;strokeColor=none;fillColor=none;rounded=1;labelBackgroundColor=none;fontColor=#1A1A1A;" vertex="1" parent="1">
          <mxGeometry x="-84" y="158" width="60" height="30" as="geometry" />
        </mxCell>
        <mxCell id="Aqao1uQsk0-bMXRQZP0p-41" value="&lt;div style=&quot;text-align: left;&quot;&gt;&lt;br&gt;&lt;/div&gt;&amp;nbsp;how is&amp;nbsp;&lt;b style=&quot;border-color: var(--border-color); font-size: 15px; text-align: left;&quot;&gt;&lt;font color=&quot;#61420d&quot; style=&quot;border-color: var(--border-color); font-size: 15px;&quot;&gt;hcp&lt;/font&gt;&amp;nbsp;related to&amp;nbsp;&lt;/b&gt;&lt;b style=&quot;border-color: var(--border-color); font-size: 15px;&quot;&gt;&lt;font style=&quot;border-color: var(--border-color); font-size: 15px;&quot; color=&quot;#ff8000&quot;&gt;activity &lt;/font&gt;&lt;font style=&quot;border-color: var(--border-color); font-size: 15px;&quot;&gt;/&lt;/font&gt;&lt;font style=&quot;border-color: var(--border-color); font-size: 15px;&quot; color=&quot;#ff8000&quot;&gt;&amp;nbsp;&lt;/font&gt;&lt;/b&gt;&lt;b style=&quot;border-color: var(--border-color); font-size: 15px; text-align: left;&quot;&gt;&lt;font color=&quot;#009900&quot; style=&quot;font-size: 15px;&quot;&gt;ActivityReporting__c &lt;/font&gt;&lt;font style=&quot;font-size: 15px;&quot;&gt;?&amp;nbsp;&lt;br&gt;&lt;br&gt;&lt;/font&gt;&lt;/b&gt;" style="text;html=1;align=center;verticalAlign=middle;resizable=0;points=[];autosize=1;strokeColor=none;fillColor=none;fontSize=15;labelBackgroundColor=none;labelBorderColor=#67AB9F;rounded=1;fontColor=#1A1A1A;" vertex="1" parent="1">
          <mxGeometry x="-178.5" y="208" width="403" height="66" as="geometry" />
        </mxCell>
        <mxCell id="Aqao1uQsk0-bMXRQZP0p-43" value="Standard Object" style="text;html=1;align=center;verticalAlign=middle;resizable=0;points=[];autosize=1;strokeColor=none;fillColor=none;rounded=1;labelBackgroundColor=none;fontColor=#1A1A1A;" vertex="1" parent="1">
          <mxGeometry x="-100" y="75" width="105" height="26" as="geometry" />
        </mxCell>
        <mxCell id="Aqao1uQsk0-bMXRQZP0p-44" value="&lt;div style=&quot;text-align: left;&quot;&gt;&lt;/div&gt;&lt;b style=&quot;border-color: var(--border-color); font-size: 15px; text-align: left;&quot;&gt;&lt;font style=&quot;font-size: 15px;&quot;&gt;&lt;br&gt;&amp;nbsp;how can fields in&amp;nbsp;&lt;b style=&quot;border-color: var(--border-color); text-align: center;&quot;&gt;&lt;font style=&quot;border-color: var(--border-color);&quot; color=&quot;#ff8000&quot;&gt;activity&amp;nbsp;&lt;/font&gt;&lt;font style=&quot;border-color: var(--border-color);&quot;&gt;affect the values of&amp;nbsp;&lt;/font&gt;&lt;/b&gt;&lt;b style=&quot;border-color: var(--border-color);&quot;&gt;&lt;font style=&quot;border-color: var(--border-color);&quot; color=&quot;#009900&quot;&gt;ActivityReporting__c &lt;/font&gt;&lt;font style=&quot;border-color: var(--border-color);&quot;&gt;?&lt;/font&gt;&lt;font style=&quot;border-color: var(--border-color);&quot; color=&quot;#009900&quot;&gt;&amp;nbsp;&lt;br&gt;&lt;/font&gt;&lt;/b&gt;&lt;br&gt;&lt;/font&gt;&lt;/b&gt;" style="text;html=1;align=center;verticalAlign=middle;resizable=0;points=[];autosize=1;strokeColor=none;fillColor=none;fontSize=15;labelBackgroundColor=none;labelBorderColor=#67AB9F;rounded=1;fontColor=#1A1A1A;" vertex="1" parent="1">
          <mxGeometry x="-178.5" y="271" width="510" height="66" as="geometry" />
        </mxCell>
        <mxCell id="Aqao1uQsk0-bMXRQZP0p-45" value="????" style="text;html=1;align=center;verticalAlign=middle;resizable=0;points=[];autosize=1;strokeColor=none;fillColor=none;rounded=1;labelBackgroundColor=none;fontColor=#1A1A1A;" vertex="1" parent="1">
          <mxGeometry x="331.5" y="293" width="45" height="26" as="geometry" />
        </mxCell>
        <mxCell id="Aqao1uQsk0-bMXRQZP0p-46" value="????" style="text;html=1;align=center;verticalAlign=middle;resizable=0;points=[];autosize=1;strokeColor=none;fillColor=none;rounded=1;labelBackgroundColor=none;fontColor=#1A1A1A;" vertex="1" parent="1">
          <mxGeometry x="323" y="17" width="45" height="26" as="geometry" />
        </mxCell>
        <mxCell id="Aqao1uQsk0-bMXRQZP0p-49" value="????" style="text;html=1;align=center;verticalAlign=middle;resizable=0;points=[];autosize=1;strokeColor=none;fillColor=none;rounded=1;labelBackgroundColor=none;fontColor=#1A1A1A;" vertex="1" parent="1">
          <mxGeometry x="224" y="228" width="45" height="26" as="geometry" />
        </mxCell>
        <mxCell id="Aqao1uQsk0-bMXRQZP0p-50" value="" style="endArrow=classic;html=1;rounded=1;entryX=0.503;entryY=1.058;entryDx=0;entryDy=0;entryPerimeter=0;labelBackgroundColor=none;strokeColor=#182E3E;fontColor=default;" edge="1" parent="1" target="Aqao1uQsk0-bMXRQZP0p-51">
          <mxGeometry width="50" height="50" relative="1" as="geometry">
            <mxPoint x="-467" y="-10" as="sourcePoint" />
            <mxPoint x="86" y="431" as="targetPoint" />
            <Array as="points">
              <mxPoint x="-467" y="-30" />
              <mxPoint x="-615" y="-30" />
              <mxPoint x="-615" y="441" />
              <mxPoint x="-20" y="441" />
            </Array>
          </mxGeometry>
        </mxCell>
        <mxCell id="Aqao1uQsk0-bMXRQZP0p-51" value="&lt;div style=&quot;text-align: left;&quot;&gt;&lt;/div&gt;&lt;b style=&quot;border-color: var(--border-color); font-size: 15px; text-align: left;&quot;&gt;&lt;font style=&quot;font-size: 15px;&quot;&gt;&amp;nbsp;&lt;br&gt;&amp;nbsp;what is the&amp;nbsp;&lt;font color=&quot;#ff0000&quot;&gt;reached code&lt;/font&gt; from catalyst ?&amp;nbsp;&lt;br&gt;&lt;br&gt;&lt;/font&gt;&lt;/b&gt;" style="text;html=1;align=center;verticalAlign=middle;resizable=0;points=[];autosize=1;strokeColor=none;fillColor=none;fontSize=15;labelBackgroundColor=none;labelBorderColor=#67AB9F;rounded=1;fontColor=#1A1A1A;" vertex="1" parent="1">
          <mxGeometry x="-178.5" y="334" width="316" height="66" as="geometry" />
        </mxCell>
        <mxCell id="Aqao1uQsk0-bMXRQZP0p-52" value="????" style="text;html=1;align=center;verticalAlign=middle;resizable=0;points=[];autosize=1;strokeColor=none;fillColor=none;rounded=1;labelBackgroundColor=none;fontColor=#1A1A1A;" vertex="1" parent="1">
          <mxGeometry x="126" y="354" width="45" height="26" as="geometry" />
        </mxCell>
        <mxCell id="Aqao1uQsk0-bMXRQZP0p-53" value="" style="endArrow=classic;html=1;rounded=1;labelBackgroundColor=none;strokeColor=#182E3E;fontColor=default;" edge="1" parent="1">
          <mxGeometry width="50" height="50" relative="1" as="geometry">
            <mxPoint x="-595" y="105" as="sourcePoint" />
            <mxPoint x="-595" y="531" as="targetPoint" />
            <Array as="points">
              <mxPoint x="-639" y="105" />
              <mxPoint x="-639" y="531" />
            </Array>
          </mxGeometry>
        </mxCell>
        <mxCell id="Aqao1uQsk0-bMXRQZP0p-55" value="" style="endArrow=classic;html=1;rounded=1;labelBackgroundColor=none;strokeColor=#182E3E;fontColor=default;" edge="1" parent="1">
          <mxGeometry width="50" height="50" relative="1" as="geometry">
            <mxPoint x="-596" y="224" as="sourcePoint" />
            <mxPoint x="-89" y="526" as="targetPoint" />
            <Array as="points">
              <mxPoint x="-659" y="224" />
              <mxPoint x="-659" y="497" />
              <mxPoint x="-137" y="497" />
              <mxPoint x="-113" y="526" />
            </Array>
          </mxGeometry>
        </mxCell>
        <mxCell id="Aqao1uQsk0-bMXRQZP0p-56" value="&lt;font color=&quot;#ff8000&quot;&gt;&lt;b&gt;Activity.Reached__c&lt;/b&gt;&lt;/font&gt;" style="text;html=1;strokeColor=none;fillColor=none;align=center;verticalAlign=middle;whiteSpace=wrap;rounded=1;fontSize=16;labelBackgroundColor=none;fontColor=#1A1A1A;" vertex="1" parent="1">
          <mxGeometry x="-598" y="519" width="184" height="24" as="geometry" />
        </mxCell>
        <mxCell id="Aqao1uQsk0-bMXRQZP0p-57" value="&lt;font color=&quot;#ff8000&quot;&gt;&lt;b&gt;Activity.Attempted__c&lt;/b&gt;&lt;/font&gt;" style="text;html=1;strokeColor=none;fillColor=none;align=center;verticalAlign=middle;whiteSpace=wrap;rounded=1;fontSize=16;labelBackgroundColor=none;fontColor=#1A1A1A;" vertex="1" parent="1">
          <mxGeometry x="-82.5" y="516" width="184" height="24" as="geometry" />
        </mxCell>
        <mxCell id="Aqao1uQsk0-bMXRQZP0p-58" value="Standard Object.Custom Field" style="text;html=1;align=center;verticalAlign=middle;resizable=0;points=[];autosize=1;strokeColor=none;fillColor=none;rounded=1;labelBackgroundColor=none;fontColor=#1A1A1A;" vertex="1" parent="1">
          <mxGeometry x="-594" y="503" width="179" height="26" as="geometry" />
        </mxCell>
        <mxCell id="Aqao1uQsk0-bMXRQZP0p-61" value="Standard Object.Custom Field" style="text;html=1;align=center;verticalAlign=middle;resizable=0;points=[];autosize=1;strokeColor=none;fillColor=none;rounded=1;labelBackgroundColor=none;fontColor=#1A1A1A;" vertex="1" parent="1">
          <mxGeometry x="-84" y="500" width="179" height="26" as="geometry" />
        </mxCell>
        <mxCell id="Aqao1uQsk0-bMXRQZP0p-62" value="Data Type: Formula" style="text;html=1;align=center;verticalAlign=middle;resizable=0;points=[];autosize=1;strokeColor=none;fillColor=none;rounded=1;labelBackgroundColor=none;fontColor=#1A1A1A;fontStyle=1;fontSize=13;" vertex="1" parent="1">
          <mxGeometry x="-418" y="513" width="138" height="28" as="geometry" />
        </mxCell>
        <mxCell id="Aqao1uQsk0-bMXRQZP0p-63" value="Data Type: Formula" style="text;html=1;align=center;verticalAlign=middle;resizable=0;points=[];autosize=1;strokeColor=none;fillColor=none;rounded=1;labelBackgroundColor=none;fontColor=#1A1A1A;fontStyle=1;fontSize=13;" vertex="1" parent="1">
          <mxGeometry x="96.5" y="507" width="138" height="28" as="geometry" />
        </mxCell>
        <mxCell id="Aqao1uQsk0-bMXRQZP0p-66" value="Return: Number" style="text;html=1;align=center;verticalAlign=middle;resizable=0;points=[];autosize=1;strokeColor=none;fillColor=none;rounded=1;labelBackgroundColor=none;fontColor=#1A1A1A;fontStyle=1;fontSize=13;" vertex="1" parent="1">
          <mxGeometry x="-275" y="513" width="117" height="28" as="geometry" />
        </mxCell>
        <mxCell id="Aqao1uQsk0-bMXRQZP0p-67" value="Return: Number" style="text;html=1;align=center;verticalAlign=middle;resizable=0;points=[];autosize=1;strokeColor=none;fillColor=none;rounded=1;labelBackgroundColor=none;fontColor=#1A1A1A;fontStyle=1;fontSize=13;" vertex="1" parent="1">
          <mxGeometry x="240.5" y="507" width="117" height="28" as="geometry" />
        </mxCell>
        <mxCell id="Aqao1uQsk0-bMXRQZP0p-68" value="&lt;div style=&quot;font-size: 14px;&quot;&gt;IF (&lt;/div&gt;&lt;div style=&quot;font-size: 14px;&quot;&gt;&amp;nbsp; &amp;nbsp; AND (&lt;/div&gt;&lt;div style=&quot;font-size: 14px;&quot;&gt;&amp;nbsp; &amp;nbsp; &amp;nbsp; &amp;nbsp; NOT (&lt;/div&gt;&lt;div style=&quot;font-size: 14px;&quot;&gt;&amp;nbsp; &amp;nbsp; &amp;nbsp; &amp;nbsp; &amp;nbsp; &amp;nbsp; OR (&lt;/div&gt;&lt;div style=&quot;font-size: 14px;&quot;&gt;&amp;nbsp; &amp;nbsp; &amp;nbsp; &amp;nbsp; &amp;nbsp; &amp;nbsp; &amp;nbsp; &amp;nbsp; OwnerId = &#39;0050b000006b8nx&#39;,&lt;/div&gt;&lt;div style=&quot;font-size: 14px;&quot;&gt;&amp;nbsp; &amp;nbsp; &amp;nbsp; &amp;nbsp; &amp;nbsp; &amp;nbsp; &amp;nbsp; &amp;nbsp; CreatedById = &#39;0050b000005Y3R9&#39;,&lt;/div&gt;&lt;div style=&quot;font-size: 14px;&quot;&gt;&amp;nbsp; &amp;nbsp; &amp;nbsp; &amp;nbsp; &amp;nbsp; &amp;nbsp; &amp;nbsp; &amp;nbsp; CreatedById = &#39;0050b000004OrRK&#39;,&lt;/div&gt;&lt;div style=&quot;font-size: 14px;&quot;&gt;&amp;nbsp; &amp;nbsp; &amp;nbsp; &amp;nbsp; &amp;nbsp; &amp;nbsp; &amp;nbsp; &amp;nbsp; CONTAINS(Subject, &#39;Automatic&#39;),&lt;/div&gt;&lt;div style=&quot;font-size: 14px;&quot;&gt;&amp;nbsp; &amp;nbsp; &amp;nbsp; &amp;nbsp; &amp;nbsp; &amp;nbsp; &amp;nbsp; &amp;nbsp; CONTAINS(Subject, &#39;Undeliverable&#39;),&lt;/div&gt;&lt;div style=&quot;font-size: 14px;&quot;&gt;&amp;nbsp; &amp;nbsp; &amp;nbsp; &amp;nbsp; &amp;nbsp; &amp;nbsp; &amp;nbsp; &amp;nbsp; CONTAINS(Subject, &#39;List Email:&#39;)&lt;/div&gt;&lt;div style=&quot;font-size: 14px;&quot;&gt;&amp;nbsp; &amp;nbsp; &amp;nbsp; &amp;nbsp; &amp;nbsp; &amp;nbsp; )&lt;/div&gt;&lt;div style=&quot;font-size: 14px;&quot;&gt;&amp;nbsp; &amp;nbsp; &amp;nbsp; &amp;nbsp; ),&lt;/div&gt;&lt;div style=&quot;font-size: 14px;&quot;&gt;&amp;nbsp; &amp;nbsp; &amp;nbsp; &amp;nbsp; OR (&lt;/div&gt;&lt;div style=&quot;font-size: 14px;&quot;&gt;&amp;nbsp; &amp;nbsp; &amp;nbsp; &amp;nbsp; &amp;nbsp; &amp;nbsp; Subject = &#39;FTF&#39;,&lt;/div&gt;&lt;div style=&quot;font-size: 14px;&quot;&gt;&amp;nbsp; &amp;nbsp; &amp;nbsp; &amp;nbsp; &amp;nbsp; &amp;nbsp; Subject = &#39;Phone Call&#39;,&lt;/div&gt;&lt;div style=&quot;font-size: 14px;&quot;&gt;&amp;nbsp; &amp;nbsp; &amp;nbsp; &amp;nbsp; &amp;nbsp; &amp;nbsp; Subject = &#39;Remote Lunch&#39;,&lt;/div&gt;&lt;div style=&quot;font-size: 14px;&quot;&gt;&amp;nbsp; &amp;nbsp; &amp;nbsp; &amp;nbsp; &amp;nbsp; &amp;nbsp; Subject = &#39;Remote Meeting&#39;,&lt;/div&gt;&lt;div style=&quot;font-size: 14px;&quot;&gt;&amp;nbsp; &amp;nbsp; &amp;nbsp; &amp;nbsp; &amp;nbsp; &amp;nbsp; Subject = &#39;FedEx Mail&#39;,&lt;/div&gt;&lt;div style=&quot;font-size: 14px;&quot;&gt;&amp;nbsp; &amp;nbsp; &amp;nbsp; &amp;nbsp; &amp;nbsp; &amp;nbsp; Subject = &#39;Lunch&#39;,&lt;/div&gt;&lt;div style=&quot;font-size: 14px;&quot;&gt;&amp;nbsp; &amp;nbsp; &amp;nbsp; &amp;nbsp; &amp;nbsp; &amp;nbsp; Subject = &#39;Meeting&#39;,&lt;/div&gt;&lt;div style=&quot;font-size: 14px;&quot;&gt;&amp;nbsp; &amp;nbsp; &amp;nbsp; &amp;nbsp; &amp;nbsp; &amp;nbsp; Subject = &#39;Office&#39;,&lt;/div&gt;&lt;div style=&quot;font-size: 14px;&quot;&gt;&amp;nbsp; &amp;nbsp; &amp;nbsp; &amp;nbsp; &amp;nbsp; &amp;nbsp; Subject = &#39;Speaker Program&#39;,&lt;/div&gt;&lt;div style=&quot;font-size: 14px;&quot;&gt;&amp;nbsp; &amp;nbsp; &amp;nbsp; &amp;nbsp; &amp;nbsp; &amp;nbsp; Subject = &#39;Advisory Board&#39;,&lt;/div&gt;&lt;div style=&quot;font-size: 14px;&quot;&gt;&amp;nbsp; &amp;nbsp; &amp;nbsp; &amp;nbsp; &amp;nbsp; &amp;nbsp; Subject = &#39;Conference&#39;,&lt;/div&gt;&lt;div style=&quot;font-size: 14px;&quot;&gt;&amp;nbsp; &amp;nbsp; &amp;nbsp; &amp;nbsp; &amp;nbsp; &amp;nbsp; Subject = &#39;Reprint&#39;,&lt;/div&gt;&lt;div style=&quot;font-size: 14px;&quot;&gt;&amp;nbsp; &amp;nbsp; &amp;nbsp; &amp;nbsp; &amp;nbsp; &amp;nbsp; CONTAINS(Subject, &#39;Re:&#39;),&lt;/div&gt;&lt;div style=&quot;font-size: 14px;&quot;&gt;&amp;nbsp; &amp;nbsp; &amp;nbsp; &amp;nbsp; &amp;nbsp; &amp;nbsp; CONTAINS(Subject, &#39;RE:&#39;)&lt;/div&gt;&lt;div style=&quot;font-size: 14px;&quot;&gt;&amp;nbsp; &amp;nbsp; &amp;nbsp; &amp;nbsp; )&lt;/div&gt;&lt;div style=&quot;font-size: 14px;&quot;&gt;&amp;nbsp; &amp;nbsp; ),&lt;/div&gt;&lt;div style=&quot;font-size: 14px;&quot;&gt;&amp;nbsp; &amp;nbsp; 1,&lt;/div&gt;&lt;div style=&quot;font-size: 14px;&quot;&gt;&amp;nbsp; &amp;nbsp; 0&lt;/div&gt;&lt;div style=&quot;font-size: 14px;&quot;&gt;)&lt;/div&gt;&lt;div style=&quot;font-size: 14px;&quot;&gt;&lt;br style=&quot;font-size: 14px;&quot;&gt;&lt;/div&gt;" style="text;html=1;strokeColor=none;fillColor=none;align=left;verticalAlign=middle;whiteSpace=wrap;rounded=0;fontColor=#1A1A1A;fontSize=14;" vertex="1" parent="1">
          <mxGeometry x="-586" y="540" width="313" height="601" as="geometry" />
        </mxCell>
        <mxCell id="Aqao1uQsk0-bMXRQZP0p-69" value="&lt;div style=&quot;font-size: 14px;&quot;&gt;IF(&lt;/div&gt;&lt;div style=&quot;font-size: 14px;&quot;&gt;&amp;nbsp; &amp;nbsp; AND(&lt;/div&gt;&lt;div style=&quot;font-size: 14px;&quot;&gt;&amp;nbsp; &amp;nbsp; &amp;nbsp; &amp;nbsp; OR(&lt;/div&gt;&lt;div style=&quot;font-size: 14px;&quot;&gt;&amp;nbsp; &amp;nbsp; &amp;nbsp; &amp;nbsp; &amp;nbsp; &amp;nbsp; Subject = &#39;Call Attempt&#39;,&amp;nbsp;&lt;/div&gt;&lt;div style=&quot;font-size: 14px;&quot;&gt;&amp;nbsp; &amp;nbsp; &amp;nbsp; &amp;nbsp; &amp;nbsp; &amp;nbsp; CONTAINS(Subject, &#39;Email:&#39;)&lt;/div&gt;&lt;div style=&quot;font-size: 14px;&quot;&gt;&amp;nbsp; &amp;nbsp; &amp;nbsp; &amp;nbsp; ),&amp;nbsp;&lt;/div&gt;&lt;div style=&quot;font-size: 14px;&quot;&gt;&amp;nbsp; &amp;nbsp; &amp;nbsp; &amp;nbsp; NOT(&lt;/div&gt;&lt;div style=&quot;font-size: 14px;&quot;&gt;&amp;nbsp; &amp;nbsp; &amp;nbsp; &amp;nbsp; &amp;nbsp; &amp;nbsp; OR(&lt;/div&gt;&lt;div style=&quot;font-size: 14px;&quot;&gt;&amp;nbsp; &amp;nbsp; &amp;nbsp; &amp;nbsp; &amp;nbsp; &amp;nbsp; &amp;nbsp; &amp;nbsp; CONTAINS(Subject, &#39;List Email&#39;),&amp;nbsp;&lt;/div&gt;&lt;div style=&quot;font-size: 14px;&quot;&gt;&amp;nbsp; &amp;nbsp; &amp;nbsp; &amp;nbsp; &amp;nbsp; &amp;nbsp; &amp;nbsp; &amp;nbsp; CONTAINS(Subject, &#39;Undeliverable&#39;)&lt;/div&gt;&lt;div style=&quot;font-size: 14px;&quot;&gt;&amp;nbsp; &amp;nbsp; &amp;nbsp; &amp;nbsp; &amp;nbsp; &amp;nbsp; )&lt;/div&gt;&lt;div style=&quot;font-size: 14px;&quot;&gt;&amp;nbsp; &amp;nbsp; &amp;nbsp; &amp;nbsp; )&lt;/div&gt;&lt;div style=&quot;font-size: 14px;&quot;&gt;&amp;nbsp; &amp;nbsp; ),&amp;nbsp;&lt;/div&gt;&lt;div style=&quot;font-size: 14px;&quot;&gt;&amp;nbsp; &amp;nbsp; 1,&amp;nbsp;&lt;/div&gt;&lt;div style=&quot;font-size: 14px;&quot;&gt;&amp;nbsp; &amp;nbsp; 0&lt;/div&gt;&lt;div style=&quot;font-size: 14px;&quot;&gt;)&lt;/div&gt;&lt;div style=&quot;font-size: 14px;&quot;&gt;&lt;br style=&quot;font-size: 14px;&quot;&gt;&lt;/div&gt;" style="text;html=1;strokeColor=none;fillColor=none;align=left;verticalAlign=middle;whiteSpace=wrap;rounded=0;fontColor=#1A1A1A;fontSize=14;" vertex="1" parent="1">
          <mxGeometry x="-74" y="543" width="298" height="323" as="geometry" />
        </mxCell>
      </root>
    </mxGraphModel>
  </diagram>
</mxfile>
